<svg xmlns="http://www.w3.org/2000/svg" width="500" height="100" viewBox="0 0 369.895 88.497" class="logo-svg">
  <path xmlns="http://www.w3.org/2000/svg" d="M43.78 88.498c-9.655 0-18.969-4.202-25.33-12.04A652 652 0 0 0 5.277 60.784C1.073 56.014-.744 49.767.278 43.52S4.935 31.822 10.5 28.641L54.796 2.86c6.02-3.521 13.29-3.748 19.536-.909 6.247 2.953 10.677 8.746 11.812 15.56l5.68 34.529a20.965 20.965 0 0 1-11.018 22.034c-5.792 3.067-13.63 6.815-23.17 11.245a31.7 31.7 0 0 1-13.857 3.18M12.66 32.503c-4.317 2.499-7.156 6.701-7.951 11.585s.681 9.882 3.975 13.516c3.862 4.316 8.291 9.655 13.289 15.788 8.178 9.995 22.034 13.175 33.733 7.723 9.427-4.43 17.15-8.177 22.943-11.244 6.36-3.294 9.768-10.222 8.632-17.264l-5.679-34.529c-.908-5.451-4.316-9.881-9.2-12.153-4.997-2.385-10.563-2.044-15.333.682z" fill="currentColor"/>
  <path d="m167.81 26.962-4.298 4.076q-4.632-4.563-10.148-6.917t-10.79-2.354q-6.504 0-12.391 3.216t-9.137 8.666-3.254 10.393q0 6.277 3.368 11.904t9.287 8.824 12.953 3.196q8.525 0 14.45-4.823t7.044-12.487h-17.681v-5.344h23.848q-.073 12.862-7.606 20.41t-20.242 7.553q-15.327 0-24.296-10.47Q112 54.73 112 44.154q0-7.886 3.943-14.056t10.86-10.014 15.625-3.851q7.028 0 13.233 2.565t12.15 8.165m14.726-11.963q1.795 0 3.085 1.271t1.29 3.063-1.29 3.085-3.085 1.29-3.063-1.29-1.274-3.082 1.274-3.066 3.063-1.27m-2.615 16.857h5.271v41.008h-5.27zm30.952 35.217q-3.889 2.094-7.629.337-4.559-3.48-4.333-9.907V40.156h9.72v-4.52h-9.762V15.819h-5.305v42.577q-.077 4.486 2.055 8.222 3.514 5.945 9.57 6.282 3.215.115 7.327-1.455-.636-1.573-1.646-4.375m9.232-51.064h5.31v56.86h-5.31zm35.588 13.83q9.455 0 15.698 6.84 5.646 6.278 5.646 14.841t-5.982 14.971T255.69 72.9q-9.42 0-15.384-6.412t-5.964-14.967q0-8.528 5.646-14.806 6.24-6.879 15.702-6.879m0 5.16q-6.545 0-11.254 4.862t-4.708 11.736q0 4.448 2.147 8.318t5.815 5.94 8 2.076q4.41 0 8.054-2.075t5.776-5.941 2.132-8.318q0-6.879-4.708-11.74t-11.254-4.858m70.839 4.41-4.188 2.618q-5.42-7.254-14.802-7.254-7.514 0-12.468 4.824T290.12 51.33q0 4.486 2.282 8.467t6.239 6.151 8.9 2.167q9.083 0 14.802-7.177l4.188 2.73q-2.955 4.409-7.908 6.82T307.314 72.9q-9.685 0-16.092-6.167t-6.412-14.99q0-5.983 3.009-11.085t8.226-7.962 11.717-2.86q4.038 0 7.832 1.233t6.45 3.234 4.486 5.103m10.018-23.4h5.305V48.38l18.956-16.522h7.77l-17.152 15.588 18.465 25.417h-7.476l-16.153-22.053-4.406 3.625v18.431h-5.31z" fill="currentColor"/>
</svg>
