<svg xmlns="http://www.w3.org/2000/svg" width="100" height="100" viewBox="0 0 90 90" class="logo-svg">
  <style>
    path {
      fill: #000000;
    }
    
    @media (prefers-color-scheme: dark) {
      path {
        fill: #ffffff;  
      }
    }
  </style>
  <path d="M43.78 88.498c-9.655 0-18.969-4.202-25.33-12.04A652 652 0 0 0 5.277 60.784C1.073 56.014-.744 49.767.278 43.52S4.935 31.822 10.5 28.641L54.796 2.86c6.02-3.521 13.29-3.748 19.536-.909 6.247 2.953 10.677 8.746 11.812 15.56l5.68 34.529a20.965 20.965 0 0 1-11.018 22.034c-5.792 3.067-13.63 6.815-23.17 11.245a31.7 31.7 0 0 1-13.857 3.18M12.66 32.503c-4.317 2.499-7.156 6.701-7.951 11.585s.681 9.882 3.975 13.516c3.862 4.316 8.291 9.655 13.289 15.788 8.178 9.995 22.034 13.175 33.733 7.723 9.427-4.43 17.15-8.177 22.943-11.244 6.36-3.294 9.768-10.222 8.632-17.264l-5.679-34.529c-.908-5.451-4.316-9.881-9.2-12.153-4.997-2.385-10.563-2.044-15.333.682z" />
</svg>
